<svg xmlns="http://www.w3.org/2000/svg" width="800" height="300" viewBox="0 0 800 300" preserveAspectRatio="xMidYMid meet">
  <defs>
    <linearGradient id="g" x1="0" x2="0" y1="0" y2="1">
      <stop offset="0%" stop-color="#3b82f6" stop-opacity="0.9"/>
      <stop offset="100%" stop-color="#60a5fa" stop-opacity="0.2"/>
    </linearGradient>
  </defs>
  <rect width="100%" height="100%" fill="#f8fafc"/>
  <g transform="translate(40,20)">
    <rect x="0" y="0" width="720" height="240" rx="12" fill="#ffffff" stroke="#e6eefc"/>
    <polyline points="0,180 80,150 160,130 240,160 320,110 400,90 480,120 560,70 640,85 720,60"
      fill="none" stroke="#1e40af" stroke-width="4" stroke-linejoin="round" stroke-linecap="round" />
    <polygon points="0,180 80,150 160,130 240,160 320,110 400,90 480,120 560,70 640,85 720,60 720,240 0,240"
      fill="url(#g)" opacity="0.7" />
    <g fill="#0f172a" font-family="Arial, Helvetica, sans-serif" font-size="14">
      <text x="10" y="18">Stock Market Time Series</text>
      <text x="600" y="18" fill="#2563eb" font-weight="700">Forecast</text>
    </g>
  </g>
</svg>